inDegrees=yes
name=ik_lifting_orientations
DataType=double
version=3
OpenSimVersion=4.5-2024-01-10-34fd6af
endheader
time	pelvis_tilt	pelvis_list	pelvis_rotation	pelvis_tx	pelvis_ty	pelvis_tz	hip_flexion_r	hip_adduction_r	hip_rotation_r	knee_angle_r	knee_angle_r_beta	ankle_angle_r	subtalar_angle_r	mtp_angle_r	hip_flexion_l	hip_adduction_l	hip_rotation_l	knee_angle_l	knee_angle_l_beta	ankle_angle_l	subtalar_angle_l	mtp_angle_l	lumbar_extension	lumbar_bending	lumbar_rotation	arm_flex_r	arm_add_r	arm_rot_r	elbow_flex_r	pro_sup_r	wrist_flex_r	wrist_dev_r	arm_flex_l	arm_add_l	arm_rot_l	elbow_flex_l	pro_sup_l	wrist_flex_l	wrist_dev_l
0.52	4.797041970190755	22.92517182579398	-97.50214781491931	0	0.9399999998679526	0	46.17693190004083	-10.3699156423456	0	60.45547384016069	1.055147069364104	-5.008371689210704	0	0	46.17693190004083	-10.3699156423456	0	60.45547384016069	1.055147069364104	-5.008371689210704	0	0	-28.42425062095138	-10.63208655657951	0.1093479900444262	49.93675371498372	2.724123930772169	-4.520356133055791	0.05462815180389618	1.871190037469057	0	0	0	-11.08955769646787	0	88.19634285893378	1.871190037469057	0	0
0.53	5.021839571410654	23.93843602039518	-97.37761507035326	0	0.9399999998679526	0	46.17654469199256	-10.36949027667971	0	60.45535633925599	1.055145018586443	-5.008359131914547	0	0	46.17654469199256	-10.36949027667971	0	60.45535633925599	1.055145018586443	-5.008359131914547	0	0	-28.90240695575013	-10.46606233092494	0.1363942051496652	51.13754439086254	2.152702269549507	-5.741234483990818	0.09907807238862305	1.870761715281588	0	0	0	-11.09021683688317	0	88.19675567122333	1.870761715281588	0	0
0.54	5.551200505827826	25.35199242663181	-97.44160287047146	0	0.9399999998679526	0	46.17602318981442	-10.36891797785895	0	60.45519805918826	1.055142256078121	-5.008342244053959	0	0	46.17602318981442	-10.36891797785895	0	60.45519805918826	1.055142256078121	-5.008342244053959	0	0	-28.80933504528941	-11.29037237539756	-0.6823822131793467	52.45747627241014	2.797328279543435	-5.500413267656136	0.09297295407467576	1.870184753087949	0	0	0	-11.0911048067846	0	88.19731174115856	1.870184753087949	0	0
0.55	4.219118765255003	26.85260482782595	-97.2562970954112	0	0.9399999998679526	0	46.17559189320025	-10.36844721332245	0	60.45506669170148	1.055139963282946	-5.008328370234556	0	0	46.17559189320025	-10.36844721332245	0	60.45506669170148	1.055139963282946	-5.008328370234556	0	0	-28.28605893463515	-10.43417302874699	-0.3041997667464924	53.45481766330132	3.7557449071846	-4.87212679378977	0.09304736629030465	1.869706891524244	0	0	0	-11.09184114321801	0	88.197772299085	1.869706891524244	0	0
0.5600000000000001	4.454410100737631	27.89874796410626	-97.11020007671434	0	0.9399999998679526	0	46.17518610997637	-10.36800496321252	0	60.45494299891151	1.055137804436501	-5.008315342419209	0	0	46.17518610997637	-10.36800496321252	0	60.45494299891151	1.055137804436501	-5.008315342419209	0	0	-28.2922638548871	-10.55469290437762	-1.209654759365099	54.97728209335871	4.993649380547758	-4.573666745755541	0.184083751363208	1.869257133878377	0	0	0	-11.09253437978987	0	88.19820577077986	1.869257133878377	0	0
0.57	4.016501823761784	30.50239002109637	-96.09066554559591	0	0.9399999998679526	0	46.174275874523	-10.36701379274929	0	60.45466616679957	1.055132972804672	-5.008286176229945	0	0	46.174275874523	-10.36701379274929	0	60.45466616679957	1.055132972804672	-5.008286176229945	0	0	-27.58171825056611	-9.915238856905475	-1.201534242482589	57.07202598066473	4.49715400492257	-5.179597350222051	0.2858468321680524	1.868248869661912	0	0	0	-11.09408740195546	0	88.19917752514269	1.868248869661912	0	0
0.58	4.209950352669107	31.57752036477065	-95.95323817071336	0	0.9399999998679526	0	46.17369583188854	-10.3663871051203	0	60.4544888960644	1.055129878846676	-5.008267771393232	0	0	46.17369583188854	-10.3663871051203	0	60.4544888960644	1.055129878846676	-5.008267771393232	0	0	-27.52874275528859	-9.969913828459466	-2.064353894653574	58.29323924065213	4.931970623231887	-4.733738082106309	0.6262771630063633	1.867605049317098	0	0	0	-11.09508071720334	0	88.19979803256837	1.867605049317098	0	0
0.59	4.028326596698673	32.89139930908746	-96.64403455063753	0	0.9399999998679526	0	46.17300548088565	-10.36563920495469	0	60.45427850100243	1.055126206760115	-5.008245799733765	0	0	46.17300548088565	-10.36563920495469	0	60.45427850100243	1.055126206760115	-5.008245799733765	0	0	-27.14339809164917	-10.21542831628143	-1.86439408021425	59.32124044778596	5.722590897081145	-4.70526095837235	0.9141003295204947	1.866839543034602	0	0	0	-11.09626077556396	0	88.20053581954157	1.866839543034602	0	0
0.6	3.140176336789898	33.37637542115147	-95.86254140458233	0	0.9399999998679526	0	46.17226387074553	-10.36483122203044	0	60.45405353285773	1.055122280325277	-5.008222038527974	0	0	46.17226387074553	-10.36483122203044	0	60.45405353285773	1.055122280325277	-5.008222038527974	0	0	-27.20051186947134	-9.134922783133353	-0.8301863827929432	59.87050559950348	5.054626306482789	-5.010400941118638	1.548052216397757	1.86601862030606	0	0	0	-11.09752442675932	0	88.20132701610156	1.86601862030606	0	0
0.61	3.330295709468091	34.42077609374706	-95.69914365894148	0	0.9399999998679526	0	46.17144833568635	-10.36394779393812	0	60.4538055274091	1.055117951813636	-5.008196105002187	0	0	46.17144833568635	-10.36394779393812	0	60.4538055274091	1.055117951813636	-5.008196105002187	0	0	-27.45243491333975	-9.642960287597058	-1.609028341086633	61.14011348511755	5.620976464575937	-5.394047373825889	1.544636484991877	1.86511480387043	0	0	0	-11.09891691018879	0	88.20219810489654	1.86511480387043	0	0
0.62	3.515827095665416	35.48362190836683	-95.55892633537813	0	0.9399999998679526	0	46.17078741863047	-10.36323457134392	0	60.45360421054639	1.055114438171542	-5.008175192664849	0	0	46.17078741863047	-10.36323457134392	0	60.45360421054639	1.055114438171542	-5.008175192664849	0	0	-27.43434063698069	-9.693605957704001	-2.481930251595083	62.12176517903556	6.104275521640581	-5.30868958611496	1.550374030707743	1.864381762471587	0	0	0	-11.1000469677784	0	88.20290460259537	1.864381762471587	0	0
0.63	3.520468614549233	35.47291692037897	-95.55939928545426	0	0.9399999998679526	0	46.17028592158621	-10.36269104981324	0	60.45345181552647	1.055111778376681	-5.008159237972354	0	0	46.17028592158621	-10.36269104981324	0	60.45345181552647	1.055111778376681	-5.008159237972354	0	0	-28.95986432282869	-9.587518058241598	-2.177438905460467	63.64000707294655	5.575625163675564	-5.528295074202353	1.551376583514579	1.863826067507594	0	0	0	-11.10090301714297	0	88.20344017556833	1.863826067507594	0	0
